<mxfile host="app.diagrams.net" modified="2021-11-08T12:59:37.899Z" agent="5.0 (Windows NT 10.0; Win64; x64) AppleWebKit/537.36 (KHTML, like Gecko) Chrome/95.0.4638.54 Safari/537.36" etag="7i8eYgGFoc4ejDAEogUy" version="15.7.0" type="github">
  <diagram id="F3S5QaNviVKwhImFeugm" name="Page-1">
    <mxGraphModel dx="981" dy="549" grid="0" gridSize="10" guides="1" tooltips="1" connect="1" arrows="1" fold="1" page="1" pageScale="1" pageWidth="827" pageHeight="1169" math="0" shadow="0">
      <root>
        <mxCell id="0" />
        <mxCell id="1" parent="0" />
        <mxCell id="8Cm0ka7NUujiJoH0r2gA-5" value="" style="endArrow=none;html=1;rounded=0;" edge="1" parent="1">
          <mxGeometry width="50" height="50" relative="1" as="geometry">
            <mxPoint x="258.5" y="628" as="sourcePoint" />
            <mxPoint x="258" y="160" as="targetPoint" />
          </mxGeometry>
        </mxCell>
        <mxCell id="8Cm0ka7NUujiJoH0r2gA-6" value="" style="endArrow=none;html=1;rounded=0;" edge="1" parent="1">
          <mxGeometry width="50" height="50" relative="1" as="geometry">
            <mxPoint x="602" y="631" as="sourcePoint" />
            <mxPoint x="602" y="153.5" as="targetPoint" />
          </mxGeometry>
        </mxCell>
        <mxCell id="8Cm0ka7NUujiJoH0r2gA-10" value="" style="endArrow=classic;html=1;rounded=0;" edge="1" parent="1">
          <mxGeometry width="50" height="50" relative="1" as="geometry">
            <mxPoint x="260" y="189" as="sourcePoint" />
            <mxPoint x="603" y="189" as="targetPoint" />
          </mxGeometry>
        </mxCell>
        <mxCell id="8Cm0ka7NUujiJoH0r2gA-11" value="&lt;font style=&quot;font-size: 24px&quot;&gt;模块&lt;/font&gt;" style="text;html=1;strokeColor=none;fillColor=none;align=center;verticalAlign=middle;whiteSpace=wrap;rounded=0;" vertex="1" parent="1">
          <mxGeometry x="208" y="107" width="103" height="63" as="geometry" />
        </mxCell>
        <mxCell id="8Cm0ka7NUujiJoH0r2gA-12" value="MCU" style="text;html=1;strokeColor=none;fillColor=none;align=center;verticalAlign=middle;whiteSpace=wrap;rounded=0;fontSize=24;" vertex="1" parent="1">
          <mxGeometry x="578" y="123.5" width="60" height="30" as="geometry" />
        </mxCell>
        <mxCell id="8Cm0ka7NUujiJoH0r2gA-13" value="&lt;font style=&quot;font-size: 14px&quot;&gt;1、上电复位，模块发送心跳包（10S）&lt;/font&gt;" style="text;html=1;strokeColor=none;fillColor=none;align=center;verticalAlign=middle;whiteSpace=wrap;rounded=0;fontSize=24;" vertex="1" parent="1">
          <mxGeometry x="302" y="153.5" width="295" height="30" as="geometry" />
        </mxCell>
        <mxCell id="8Cm0ka7NUujiJoH0r2gA-14" value="" style="endArrow=classic;html=1;rounded=0;fontSize=14;" edge="1" parent="1">
          <mxGeometry width="50" height="50" relative="1" as="geometry">
            <mxPoint x="601" y="255" as="sourcePoint" />
            <mxPoint x="257" y="255" as="targetPoint" />
          </mxGeometry>
        </mxCell>
        <mxCell id="8Cm0ka7NUujiJoH0r2gA-15" value="2、回复（首次回复心跳包值为1，此外为0），如果超过3s未回复则回到步骤1" style="text;html=1;strokeColor=none;fillColor=none;align=center;verticalAlign=middle;whiteSpace=wrap;rounded=0;fontSize=14;" vertex="1" parent="1">
          <mxGeometry x="291" y="194" width="289" height="55" as="geometry" />
        </mxCell>
        <mxCell id="8Cm0ka7NUujiJoH0r2gA-18" value="" style="endArrow=classic;html=1;rounded=0;fontSize=14;" edge="1" parent="1">
          <mxGeometry width="50" height="50" relative="1" as="geometry">
            <mxPoint x="262" y="297" as="sourcePoint" />
            <mxPoint x="600" y="297" as="targetPoint" />
          </mxGeometry>
        </mxCell>
        <mxCell id="8Cm0ka7NUujiJoH0r2gA-19" value="3、模组查询MCU版本" style="text;html=1;strokeColor=none;fillColor=none;align=center;verticalAlign=middle;whiteSpace=wrap;rounded=0;fontSize=14;" vertex="1" parent="1">
          <mxGeometry x="342" y="267" width="178" height="30" as="geometry" />
        </mxCell>
        <mxCell id="8Cm0ka7NUujiJoH0r2gA-20" value="" style="endArrow=classic;html=1;rounded=0;fontSize=14;" edge="1" parent="1">
          <mxGeometry width="50" height="50" relative="1" as="geometry">
            <mxPoint x="594" y="337" as="sourcePoint" />
            <mxPoint x="260" y="337" as="targetPoint" />
          </mxGeometry>
        </mxCell>
        <mxCell id="8Cm0ka7NUujiJoH0r2gA-21" value="4、MCU回复版本号" style="text;html=1;strokeColor=none;fillColor=none;align=center;verticalAlign=middle;whiteSpace=wrap;rounded=0;fontSize=14;" vertex="1" parent="1">
          <mxGeometry x="334" y="305" width="186" height="30" as="geometry" />
        </mxCell>
        <mxCell id="8Cm0ka7NUujiJoH0r2gA-22" value="" style="endArrow=classic;html=1;rounded=0;fontSize=14;" edge="1" parent="1">
          <mxGeometry width="50" height="50" relative="1" as="geometry">
            <mxPoint x="262" y="373" as="sourcePoint" />
            <mxPoint x="597" y="373" as="targetPoint" />
          </mxGeometry>
        </mxCell>
        <mxCell id="8Cm0ka7NUujiJoH0r2gA-23" value="5、模组获取MCU 工作方式" style="text;html=1;strokeColor=none;fillColor=none;align=center;verticalAlign=middle;whiteSpace=wrap;rounded=0;fontSize=14;" vertex="1" parent="1">
          <mxGeometry x="325" y="339" width="201" height="30" as="geometry" />
        </mxCell>
        <mxCell id="8Cm0ka7NUujiJoH0r2gA-24" value="" style="endArrow=classic;html=1;rounded=0;fontSize=14;" edge="1" parent="1">
          <mxGeometry width="50" height="50" relative="1" as="geometry">
            <mxPoint x="597" y="425" as="sourcePoint" />
            <mxPoint x="261" y="425" as="targetPoint" />
          </mxGeometry>
        </mxCell>
        <mxCell id="8Cm0ka7NUujiJoH0r2gA-25" value="6、MCU发送工作状态" style="text;html=1;strokeColor=none;fillColor=none;align=center;verticalAlign=middle;whiteSpace=wrap;rounded=0;fontSize=14;" vertex="1" parent="1">
          <mxGeometry x="342" y="385" width="161" height="30" as="geometry" />
        </mxCell>
        <mxCell id="8Cm0ka7NUujiJoH0r2gA-31" value="" style="endArrow=classic;html=1;rounded=0;fontSize=14;" edge="1" parent="1">
          <mxGeometry width="50" height="50" relative="1" as="geometry">
            <mxPoint x="600" y="472" as="sourcePoint" />
            <mxPoint x="262" y="472" as="targetPoint" />
          </mxGeometry>
        </mxCell>
        <mxCell id="8Cm0ka7NUujiJoH0r2gA-32" value="7、模组下发数据同步指令" style="text;html=1;strokeColor=none;fillColor=none;align=center;verticalAlign=middle;whiteSpace=wrap;rounded=0;fontSize=14;" vertex="1" parent="1">
          <mxGeometry x="314.5" y="434" width="209" height="30" as="geometry" />
        </mxCell>
        <mxCell id="8Cm0ka7NUujiJoH0r2gA-33" value="" style="endArrow=classic;html=1;rounded=0;fontSize=14;" edge="1" parent="1">
          <mxGeometry width="50" height="50" relative="1" as="geometry">
            <mxPoint x="262" y="516" as="sourcePoint" />
            <mxPoint x="600" y="516" as="targetPoint" />
          </mxGeometry>
        </mxCell>
        <mxCell id="8Cm0ka7NUujiJoH0r2gA-35" value="8、MCU上报当前状态指令" style="text;html=1;strokeColor=none;fillColor=none;align=center;verticalAlign=middle;whiteSpace=wrap;rounded=0;fontSize=14;" vertex="1" parent="1">
          <mxGeometry x="302" y="483" width="234" height="30" as="geometry" />
        </mxCell>
        <mxCell id="8Cm0ka7NUujiJoH0r2gA-37" value="" style="endArrow=none;html=1;rounded=0;" edge="1" parent="1">
          <mxGeometry width="50" height="50" relative="1" as="geometry">
            <mxPoint x="129.5" y="628" as="sourcePoint" />
            <mxPoint x="129" y="160" as="targetPoint" />
          </mxGeometry>
        </mxCell>
        <mxCell id="8Cm0ka7NUujiJoH0r2gA-38" value="&lt;font style=&quot;font-size: 24px&quot;&gt;APP&lt;/font&gt;" style="text;html=1;strokeColor=none;fillColor=none;align=center;verticalAlign=middle;whiteSpace=wrap;rounded=0;fontSize=14;" vertex="1" parent="1">
          <mxGeometry x="101" y="123.5" width="60" height="30" as="geometry" />
        </mxCell>
        <mxCell id="8Cm0ka7NUujiJoH0r2gA-39" value="" style="endArrow=classic;html=1;rounded=0;fontSize=24;" edge="1" parent="1">
          <mxGeometry width="50" height="50" relative="1" as="geometry">
            <mxPoint x="130" y="543" as="sourcePoint" />
            <mxPoint x="260" y="543" as="targetPoint" />
          </mxGeometry>
        </mxCell>
        <mxCell id="8Cm0ka7NUujiJoH0r2gA-40" value="&lt;font style=&quot;font-size: 12px&quot;&gt;数据下发&lt;/font&gt;" style="text;html=1;strokeColor=none;fillColor=none;align=center;verticalAlign=middle;whiteSpace=wrap;rounded=0;fontSize=24;" vertex="1" parent="1">
          <mxGeometry x="165" y="502" width="60" height="30" as="geometry" />
        </mxCell>
        <mxCell id="8Cm0ka7NUujiJoH0r2gA-42" value="" style="endArrow=classic;html=1;rounded=0;fontSize=12;" edge="1" parent="1">
          <mxGeometry width="50" height="50" relative="1" as="geometry">
            <mxPoint x="258" y="613" as="sourcePoint" />
            <mxPoint x="132" y="613" as="targetPoint" />
          </mxGeometry>
        </mxCell>
        <mxCell id="8Cm0ka7NUujiJoH0r2gA-43" value="数据上报" style="text;html=1;strokeColor=none;fillColor=none;align=center;verticalAlign=middle;whiteSpace=wrap;rounded=0;fontSize=12;" vertex="1" parent="1">
          <mxGeometry x="165" y="555" width="60" height="30" as="geometry" />
        </mxCell>
        <mxCell id="8Cm0ka7NUujiJoH0r2gA-44" value="" style="endArrow=classic;html=1;rounded=0;fontSize=12;" edge="1" parent="1">
          <mxGeometry width="50" height="50" relative="1" as="geometry">
            <mxPoint x="595.5" y="593" as="sourcePoint" />
            <mxPoint x="255.5" y="593" as="targetPoint" />
          </mxGeometry>
        </mxCell>
        <mxCell id="8Cm0ka7NUujiJoH0r2gA-45" value="" style="endArrow=classic;html=1;rounded=0;fontSize=12;" edge="1" parent="1">
          <mxGeometry width="50" height="50" relative="1" as="geometry">
            <mxPoint x="258" y="555" as="sourcePoint" />
            <mxPoint x="604" y="555" as="targetPoint" />
          </mxGeometry>
        </mxCell>
        <mxCell id="8Cm0ka7NUujiJoH0r2gA-46" value="MCU执行相应操作" style="text;html=1;strokeColor=none;fillColor=none;align=center;verticalAlign=middle;whiteSpace=wrap;rounded=0;fontSize=12;" vertex="1" parent="1">
          <mxGeometry x="345.5" y="529" width="147" height="30" as="geometry" />
        </mxCell>
        <mxCell id="8Cm0ka7NUujiJoH0r2gA-47" value="MCU主动上报或执行完相应功能后上报" style="text;html=1;strokeColor=none;fillColor=none;align=center;verticalAlign=middle;whiteSpace=wrap;rounded=0;fontSize=12;" vertex="1" parent="1">
          <mxGeometry x="320.5" y="566" width="213" height="30" as="geometry" />
        </mxCell>
      </root>
    </mxGraphModel>
  </diagram>
</mxfile>
